<svg width="24" height="24" viewBox="0 0 24 24" fill="none" xmlns="http://www.w3.org/2000/svg">
<path fill-rule="evenodd" clip-rule="evenodd" d="M5.35 6.00034C5.35 6.53192 5.45635 7.03866 5.64894 7.50044H2.5V12.0004H21.5V7.50044H18.3511C18.5436 7.03866 18.65 6.53192 18.65 6.00034C18.65 3.84643 16.9039 2.10034 14.75 2.10034C13.677 2.10034 12.7051 2.53369 12 3.23493C11.2949 2.53369 10.323 2.10034 9.25 2.10034C7.09609 2.10034 5.35 3.84643 5.35 6.00034ZM10.4501 5.10034C10.1764 4.73601 9.74075 4.50034 9.25 4.50034C8.42157 4.50034 7.75 5.17191 7.75 6.00034C7.75 6.49109 7.98567 6.92679 8.35 7.20045C8.6007 7.38876 8.91232 7.50034 9.25 7.50034H10.75V6.00034C10.75 5.66266 10.6384 5.35104 10.4501 5.10034ZM20 20.5004V14.0004H4V20.5004H20ZM14.75 4.50034C14.2593 4.50034 13.8236 4.73601 13.5499 5.10034C13.3616 5.35104 13.25 5.66266 13.25 6.00034V7.50034H14.75C15.0877 7.50034 15.3993 7.38876 15.65 7.20045C16.0143 6.92679 16.25 6.49109 16.25 6.00034C16.25 5.17191 15.5784 4.50034 14.75 4.50034Z" fill="white" fill-opacity="0.6"/>
</svg>
